# xmcd
#
# Track frame offsets: 
#        150
#        14470
#        31008
#        46046
#        70616
#        85972
#        110419
#        124139
#        145473
#        159040
#        173735
#        187436
#        208276
#        226934
#        250401
#        264076
#
# Disc length: 3783 seconds
#
# Revision: 0
# Processed by: cddbd v1.5.2PL0 Copyright (c) Steve Scherf et al.
# Submitted via: ExactAudioCopy v0.95b4
#
DISCID=d50ec510
DTITLE=Kevin Henderson - The Two Sides Of
DYEAR=2005
DGENRE=Country
TTITLE0=Come On Home To Alabama
TTITLE1=We Want To Stay A Little Bit Longer
TTITLE2=It's A Little More Like Heaven
TTITLE3=Caught In A Corner
TTITLE4=Franklin
TTITLE5=You Are My Love
TTITLE6=Tequila, Chili And You
TTITLE7=Rebel Highway
TTITLE8=Gold In Her Eyes
TTITLE9=Belly Up To The Bar
TTITLE10=The Actress
TTITLE11=Pattaya
TTITLE12=Skinny Minny
TTITLE13=Sie Wollen Den Tanz
TTITLE14=Endlich Daheim
TTITLE15=Shadow Dance
EXTD=
EXTT0=
EXTT1=
EXTT2=
EXTT3=
EXTT4=
EXTT5=
EXTT6=
EXTT7=
EXTT8=
EXTT9=
EXTT10=
EXTT11=
EXTT12=
EXTT13=
EXTT14=
EXTT15=
PLAYORDER=
